# xmcd
#
# Track frame offsets:
#	182
#	12287
#	22377
#	34437
#	46917
#	58177
#	70727
#	82260
#	100550
#	114512
#	126887
#	136792
#	148632
#	161982
#	174612
#	185772
#	202287
#	213202
#	223717
#	233357
#	249990
#	261055
#	273645
#	291387
#	303405
#
# Disc length: 4247 seconds
#
# Revision: 8
# Processed by: cddbd v1.5.2PL0 Copyright (c) Steve Scherf et al.
# Submitted via: SynApp - FreeCDDB Version: 2.5
#
DISCID=85109519
DTITLE=Hooker, John Lee - John Lee Hooker Collection
DYEAR=1993
DGENRE=Blues
TTITLE0=I'm In The Mood
TTITLE1=Dimples
TTITLE2=Frisco
TTITLE3=Hobo Blues
TTITLE4=Boom Boom
TTITLE5=Baby Lee
TTITLE6=Boogie Chillen 2
TTITLE7=House Rent Boogie
TTITLE8=Don't You Remember Me
TTITLE9=Drug Store Woman
TTITLE10=Dusty Road
TTITLE11=Good Rockin' Mama
TTITLE12=I Love You Honey
TTITLE13=I'm So Excited
TTITLE14=Little Wheel
TTITLE15=Mama, You Got A Daughter
TTITLE16=No Shoes
TTITLE17=Old Time Shimmy
TTITLE18=Onions
TTITLE19=Process
TTITLE20=Send Me Your Pillow
TTITLE21=Trouble Blues
TTITLE22=Wednesday Evenin' Blues
TTITLE23=Whiskey And Wimmen
TTITLE24=Tupelo
EXTD=
EXTT0=
EXTT1=
EXTT2=
EXTT3=
EXTT4=
EXTT5=
EXTT6=
EXTT7=
EXTT8=
EXTT9=
EXTT10=
EXTT11=
EXTT12=
EXTT13=
EXTT14=
EXTT15=
EXTT16=
EXTT17=
EXTT18=
EXTT19=
EXTT20=
EXTT21=
EXTT22=
EXTT23=
EXTT24=
PLAYORDER=
